# xmcd CD database file
#
# Track frame offsets:
#	150
#	16343
#	34575
#
# Disc length: 675 seconds
#
# Revision: 0
# Processed by: cddbd v1.5.1PL0 Copyright (c) Steve Scherf et al.
# Submitted via: CDex 1.51
#
DISCID=1702a103
DTITLE=Pizzicato Five - モナムール東京
DYEAR=1999
DGENRE=JPop
TTITLE0=モナムール東京
TTITLE1=私の人生、人生の夏
TTITLE2=モナムール東京　（instrumental）
EXTD=YEAR: 1999
EXTT0=
EXTT1=
EXTT2=
PLAYORDER=
